<svg width="32" height="32" viewBox="0 0 32 32" fill="none" xmlns="http://www.w3.org/2000/svg">
<path d="M16 29.3334L10.6667 24H21.3333L16 29.3334ZM16 2.66669L21.3333 8.00002H10.6667L16 2.66669ZM16 18.6667C15.2928 18.6667 14.6145 18.3857 14.1144 17.8856C13.6143 17.3855 13.3333 16.7073 13.3333 16C13.3333 15.2928 13.6143 14.6145 14.1144 14.1144C14.6145 13.6143 15.2928 13.3334 16 13.3334C16.7072 13.3334 17.3855 13.6143 17.8856 14.1144C18.3857 14.6145 18.6667 15.2928 18.6667 16C18.6667 16.7073 18.3857 17.3855 17.8856 17.8856C17.3855 18.3857 16.7072 18.6667 16 18.6667ZM2.66666 16L8 10.6667V21.3334L2.66666 16ZM29.3333 16L24 21.3334V10.6667L29.3333 16Z" fill="#B2FF50"/>
</svg>
