<svg width="32" height="33" viewBox="0 0 32 33" fill="none" xmlns="http://www.w3.org/2000/svg">
<path d="M16 0.5C17.6042 0.5 19.1562 0.729167 20.6562 1.1875C22.1562 1.64583 23.5469 2.30208 24.8281 3.15625C26.1094 4.01042 27.2604 5.03646 28.2812 6.23438C29.3021 7.43229 30.125 8.77604 30.75 10.2656C31.1042 11.1094 31.3958 12.0156 31.625 12.9844C31.8542 13.9531 31.974 14.8958 31.9844 15.8125C31.9844 16.4375 31.9688 17.0417 31.9375 17.625C31.9062 18.2083 31.8385 18.7812 31.7344 19.3438C31.6302 19.9062 31.5052 20.4635 31.3594 21.0156C31.2135 21.5677 31.0104 22.1406 30.75 22.7344C30.125 24.2135 29.3073 25.5521 28.2969 26.75C27.2865 27.9479 26.1406 28.974 24.8594 29.8281C23.5781 30.6823 22.1823 31.3385 20.6719 31.7969C19.1615 32.2552 17.6042 32.4896 16 32.5C14.3958 32.5 12.8438 32.2708 11.3438 31.8125C9.84375 31.3542 8.44792 30.6979 7.15625 29.8438C5.86458 28.9896 4.71354 27.9635 3.70312 26.7656C2.69271 25.5677 1.875 24.224 1.25 22.7344C1 22.151 0.796875 21.5833 0.640625 21.0312C0.484375 20.4792 0.359375 19.9167 0.265625 19.3438C0.171875 18.7708 0.109375 18.1979 0.078125 17.625C0.046875 17.0521 0.0260417 16.4479 0.015625 15.8125C0.015625 14.8958 0.130208 13.9531 0.359375 12.9844C0.588542 12.0156 0.885417 11.1094 1.25 10.2656C1.875 8.78646 2.69271 7.44792 3.70312 6.25C4.71354 5.05208 5.86458 4.02604 7.15625 3.17188C8.44792 2.31771 9.84375 1.66146 11.3438 1.20312C12.8438 0.744792 14.3958 0.510417 16 0.5ZM23.4688 11.3125C23.6146 12.1667 23.7188 13.026 23.7812 13.8906C23.8438 14.7552 23.875 15.625 23.875 16.5C23.875 17.5417 23.8281 18.5781 23.7344 19.6094C24.5156 19.4219 25.2865 19.1823 26.0469 18.8906C26.8073 18.599 27.5365 18.2344 28.2344 17.7969C28.3802 17.7031 28.5521 17.5781 28.75 17.4219C28.9479 17.2656 29.1354 17.0938 29.3125 16.9062C29.4896 16.7188 29.6458 16.526 29.7812 16.3281C29.9167 16.1302 29.9844 15.9323 29.9844 15.7344C29.9844 15.6198 29.9792 15.5 29.9688 15.375C29.9583 15.25 29.9427 15.1354 29.9219 15.0312C29.8594 14.7188 29.6823 14.4167 29.3906 14.125C29.099 13.8333 28.7604 13.5573 28.375 13.2969C27.9896 13.0365 27.6042 12.8177 27.2188 12.6406C26.8333 12.4635 26.5052 12.3125 26.2344 12.1875C25.7865 12.0104 25.3333 11.849 24.875 11.7031C24.4167 11.5573 23.9479 11.4271 23.4688 11.3125ZM29.0156 11.3125C28.6302 10.3542 28.1458 9.45312 27.5625 8.60938C26.9792 7.76562 26.3177 7 25.5781 6.3125C24.8385 5.625 24.0312 5.01042 23.1562 4.46875C22.2812 3.92708 21.349 3.5 20.3594 3.1875C21.0052 4.0625 21.5469 5.01562 21.9844 6.04688C22.4219 7.07812 22.7656 8.11979 23.0156 9.17188C24.0677 9.39062 25.0938 9.66667 26.0938 10C27.0938 10.3333 28.0677 10.7708 29.0156 11.3125ZM15.6719 2.5H15.4219C15.3385 2.5 15.2552 2.51042 15.1719 2.53125C15.1094 2.54167 15.0052 2.58333 14.8594 2.65625C14.7135 2.72917 14.6146 2.78646 14.5625 2.82812C14.2604 3.00521 13.9792 3.22396 13.7188 3.48438C13.4583 3.74479 13.2188 4.02083 13 4.3125C12.7812 4.60417 12.5729 4.91667 12.375 5.25C12.1771 5.58333 12.0104 5.90104 11.875 6.20312C11.6667 6.63021 11.4844 7.0625 11.3281 7.5C11.1719 7.9375 11.026 8.38542 10.8906 8.84375C11.7344 8.72917 12.5833 8.64583 13.4375 8.59375C14.2917 8.54167 15.1458 8.51042 16 8.5C16.8542 8.5 17.7083 8.52604 18.5625 8.57812C19.4167 8.63021 20.2656 8.71875 21.1094 8.84375C20.974 8.38542 20.8281 7.9375 20.6719 7.5C20.5156 7.0625 20.3333 6.63021 20.125 6.20312C19.9792 5.89062 19.8125 5.57292 19.625 5.25C19.4375 4.92708 19.2344 4.61979 19.0156 4.32812C18.7969 4.03646 18.5521 3.75521 18.2812 3.48438C18.0104 3.21354 17.7292 2.99479 17.4375 2.82812C17.3854 2.78646 17.2865 2.72917 17.1406 2.65625C16.9948 2.58333 16.8906 2.54167 16.8281 2.53125C16.7448 2.51042 16.6615 2.5 16.5781 2.5C16.4948 2.5 16.4115 2.5 16.3281 2.5H15.6719ZM11.6406 3.1875C10.6615 3.51042 9.73438 3.9375 8.85938 4.46875C7.98438 5 7.17188 5.60938 6.42188 6.29688C5.67188 6.98438 5.01042 7.75521 4.4375 8.60938C3.86458 9.46354 3.38021 10.3646 2.98438 11.3125C3.93229 10.7812 4.90625 10.349 5.90625 10.0156C6.90625 9.68229 7.93229 9.40104 8.98438 9.17188C9.23438 8.11979 9.57812 7.07812 10.0156 6.04688C10.4531 5.01562 10.9948 4.0625 11.6406 3.1875ZM2.26562 19.2031C2.50521 20.4427 2.90625 21.6146 3.46875 22.7188C4.03125 23.8229 4.71875 24.8385 5.53125 25.7656C6.34375 26.6927 7.26562 27.5 8.29688 28.1875C9.32812 28.875 10.4479 29.4167 11.6562 29.8125C11.0521 29.0208 10.5521 28.1615 10.1562 27.2344C9.76042 26.3073 9.42188 25.3646 9.14062 24.4062C9.45312 24.4688 9.76562 24.5208 10.0781 24.5625C10.3906 24.6042 10.7135 24.651 11.0469 24.7031C11.1927 25.1615 11.3698 25.6406 11.5781 26.1406C11.7865 26.6406 12.026 27.1354 12.2969 27.625C12.5677 28.1146 12.875 28.5677 13.2188 28.9844C13.5625 29.401 13.9375 29.7552 14.3438 30.0469C14.3854 30.0781 14.4427 30.1146 14.5156 30.1562C14.5885 30.1979 14.6667 30.2396 14.75 30.2812C14.8333 30.3229 14.9115 30.3646 14.9844 30.4062C15.0573 30.4479 15.1198 30.474 15.1719 30.4844C15.2344 30.4948 15.2969 30.5 15.3594 30.5C15.4219 30.5 15.4948 30.5 15.5781 30.5H16.5781C16.6615 30.5 16.7448 30.4896 16.8281 30.4688C16.9115 30.4479 17.026 30.401 17.1719 30.3281C17.3177 30.2552 17.4323 30.1927 17.5156 30.1406C17.9427 29.8698 18.3333 29.526 18.6875 29.1094C19.0417 28.6927 19.3594 28.2344 19.6406 27.7344C19.9219 27.2344 20.1719 26.7344 20.3906 26.2344C20.6094 25.7344 20.7917 25.2448 20.9375 24.7656C21.3646 23.4531 21.6667 22.0938 21.8438 20.6875C22.0208 19.2812 22.1146 17.8854 22.125 16.5C22.125 15.5625 22.0885 14.6302 22.0156 13.7031C21.9427 12.776 21.8125 11.8542 21.625 10.9375C20.6875 10.7917 19.7552 10.6823 18.8281 10.6094C17.901 10.5365 16.9583 10.5 16 10.5C15.0521 10.5 14.1146 10.5365 13.1875 10.6094C12.2604 10.6823 11.3229 10.7917 10.375 10.9375C10.1979 11.8542 10.0729 12.776 10 13.7031C9.92708 14.6302 9.88542 15.5625 9.875 16.5V16.9531C9.875 17.099 9.88542 17.2552 9.90625 17.4219C9.60417 17.3698 9.30729 17.3073 9.01562 17.2344C8.72396 17.1615 8.43229 17.0781 8.14062 16.9844C8.13021 16.901 8.125 16.8229 8.125 16.75C8.125 16.6771 8.125 16.5938 8.125 16.5C8.125 15.625 8.15625 14.7552 8.21875 13.8906C8.28125 13.026 8.38542 12.1667 8.53125 11.3125C8.0625 11.4271 7.59896 11.5573 7.14062 11.7031C6.68229 11.849 6.22396 12.0104 5.76562 12.1875C5.49479 12.3021 5.16667 12.4531 4.78125 12.6406C4.39583 12.8281 4.01042 13.0469 3.625 13.2969C3.23958 13.5469 2.90625 13.8177 2.625 14.1094C2.34375 14.401 2.16146 14.7083 2.07812 15.0312C2.05729 15.1354 2.04167 15.25 2.03125 15.375C2.02083 15.5 2.01562 15.6198 2.01562 15.7344C2.01562 15.7865 2.03646 15.8698 2.07812 15.9844C2.11979 16.099 2.15625 16.1823 2.1875 16.2344C2.34375 16.5365 2.5625 16.8177 2.84375 17.0781C3.125 17.3385 3.43229 17.5781 3.76562 17.7969C4.09896 18.0156 4.4375 18.2083 4.78125 18.375C5.125 18.5417 5.45312 18.6875 5.76562 18.8125C6.53646 19.125 7.34896 19.3854 8.20312 19.5938C9.05729 19.8021 9.92188 19.9792 10.7969 20.125C11.6719 20.2708 12.5521 20.3646 13.4375 20.4062C14.3229 20.4479 15.1771 20.4792 16 20.5H16.5781L14.2969 18.2031L15.7031 16.7969L20.4062 21.5L15.7031 26.2031L14.2969 24.7969L16.5938 22.5C15.8333 22.5 15.0417 22.4844 14.2188 22.4531C13.3958 22.4219 12.5625 22.3542 11.7188 22.25C10.875 22.1458 10.0208 22.0208 9.15625 21.875C8.29167 21.7292 7.46354 21.526 6.67188 21.2656C5.88021 21.0052 5.10417 20.7135 4.34375 20.3906C3.58333 20.0677 2.89062 19.6719 2.26562 19.2031ZM20.3594 29.8125C21.5573 29.4167 22.6719 28.875 23.7031 28.1875C24.7344 27.5 25.6615 26.6927 26.4844 25.7656C27.3073 24.8385 27.9896 23.8229 28.5312 22.7188C29.0729 21.6146 29.474 20.4375 29.7344 19.1875C29.2865 19.5208 28.8073 19.8177 28.2969 20.0781C27.7865 20.3385 27.2656 20.5729 26.7344 20.7812C26.2031 20.9896 25.6562 21.1719 25.0938 21.3281C24.5312 21.4844 23.9844 21.6198 23.4531 21.7344C23.3385 22.4219 23.1927 23.125 23.0156 23.8438C22.8385 24.5625 22.625 25.2656 22.375 25.9531C22.125 26.6406 21.8333 27.3177 21.5 27.9844C21.1667 28.651 20.7865 29.2604 20.3594 29.8125Z" fill="black"/>
</svg>
